# xmcd
#
# Track frame offsets: 
#        150
#        14102
#        33377
#        48475
#        62627
#        77580
#        91257
#        141560
#        158617
#        175862
#
# Disc length: 2648 seconds
#
# Revision: 3
# Processed by: cddbd v1.5.2PL0 Copyright (c) Steve Scherf et al.
# Submitted via: ExactAudioCopy v0.99pb3
#
DISCID=7f0a560a
DTITLE=Pirates Of The Mississippi - Walk The Plank
DYEAR=1991
DGENRE=
TTITLE0=Too Much
TTITLE1=I Wouldn't Have It Any Other Way
TTITLE2=Til I'm Holding You Again
TTITLE3=Georgia Peaches
TTITLE4=Fighting For You
TTITLE5=This Ain't The Denver I Remember
TTITLE6=Nashville Night/Redneck Blues
TTITLE7=The Storm
TTITLE8=Uncommon Man
TTITLE9=Honky Tonk Highway
EXTD=
EXTT0=
EXTT1=
EXTT2=
EXTT3=
EXTT4=
EXTT5=
EXTT6=
EXTT7=
EXTT8=
EXTT9=
PLAYORDER=
